# xmcd CD database file
#
# Track frame offsets:
#	150
#	8285
#	22215
#	42955
#	59645
#	70672
#	83917
#	96797
#	122447
#	136367
#	148630
#	165885
#	175715
#	186895
#	204485
#	216017
#	227577
#	238085
#
# Disc length: 3420 seconds
#
# Revision: 0
# Processed by: cddbd v1.5.2PL0 Copyright (c) Steve Scherf et al.
# Submitted via: CDex 1.70beta2
#
DISCID=ec0d5a12
DTITLE=Walter Hörler - Finally
DYEAR=1900
DGENRE=Jazz
TTITLE0=Stella Ba Starlight
TTITLE1=Here's That Rainy Day
TTITLE2=Sweet Lorraine
TTITLE3=What Are You Doing The Rest Of Your Life
TTITLE4=Your's My Heart Alone
TTITLE5=Moonlight In Vermont
TTITLE6=Ain't Misbehavin'
TTITLE7=Hymn To Freedom
TTITLE8=My Ship
TTITLE9=Emily
TTITLE10=My One And Only Love
TTITLE11=Alice
TTITLE12=Body And Soul
TTITLE13=Spanish
TTITLE14=Our Love Is Here To Stay
TTITLE15=Embraceable You
TTITLE16=Doubtlessly To Doubt
TTITLE17=Thats All
EXTD=
EXTT0=
EXTT1=
EXTT2=
EXTT3=
EXTT4=
EXTT5=
EXTT6=
EXTT7=
EXTT8=
EXTT9=
EXTT10=
EXTT11=
EXTT12=
EXTT13=
EXTT14=
EXTT15=
EXTT16=
EXTT17=
PLAYORDER=
